<?xml version="1.0" encoding="UTF-8" standalone="no"?>
<!-- Created with Inkscape (http://www.inkscape.org/) -->

<svg
   width="72.402382mm"
   height="11.141022mm"
   viewBox="0 0 72.402382 11.141022"
   version="1.1"
   id="svg5"
   xmlns:xlink="http://www.w3.org/1999/xlink"
   xmlns="http://www.w3.org/2000/svg"
   xmlns:svg="http://www.w3.org/2000/svg">
  <defs
     id="defs2">
    <linearGradient
       id="linearGradient1081">
      <stop
         style="stop-color:#08ff73;stop-opacity:1;"
         offset="0.70270568"
         id="stop1077" />
      <stop
         style="stop-color:#ffffff;stop-opacity:1;"
         offset="1"
         id="stop1079" />
    </linearGradient>
    <rect
       x="190.43942"
       y="260.1778"
       width="486.82755"
       height="225.30861"
       id="rect236" />
    <linearGradient
       xlink:href="#linearGradient1081"
       id="linearGradient1083"
       x1="191.44727"
       y1="291.93292"
       x2="431.3645"
       y2="246.33475"
       gradientUnits="userSpaceOnUse" />
    <filter
       style="color-interpolation-filters:sRGB"
       id="filter1085"
       x="-0.00036849495"
       y="-0.0024044914"
       width="1.000737"
       height="1.004809">
      <feGaussianBlur
         stdDeviation="0.041984675"
         id="feGaussianBlur1087" />
    </filter>
    <linearGradient
       xlink:href="#linearGradient1081"
       id="linearGradient3050"
       gradientUnits="userSpaceOnUse"
       x1="191.44727"
       y1="291.93292"
       x2="431.3645"
       y2="246.33475" />
    <linearGradient
       xlink:href="#linearGradient1081"
       id="linearGradient3052"
       gradientUnits="userSpaceOnUse"
       x1="191.44727"
       y1="291.93292"
       x2="431.3645"
       y2="246.33475" />
    <linearGradient
       xlink:href="#linearGradient1081"
       id="linearGradient3054"
       gradientUnits="userSpaceOnUse"
       x1="191.44727"
       y1="291.93292"
       x2="431.3645"
       y2="246.33475" />
    <linearGradient
       xlink:href="#linearGradient1081"
       id="linearGradient3056"
       gradientUnits="userSpaceOnUse"
       x1="191.44727"
       y1="291.93292"
       x2="431.3645"
       y2="246.33475" />
    <linearGradient
       xlink:href="#linearGradient1081"
       id="linearGradient3058"
       gradientUnits="userSpaceOnUse"
       x1="191.44727"
       y1="291.93292"
       x2="431.3645"
       y2="246.33475" />
    <linearGradient
       xlink:href="#linearGradient1081"
       id="linearGradient3060"
       gradientUnits="userSpaceOnUse"
       x1="191.44727"
       y1="291.93292"
       x2="431.3645"
       y2="246.33475" />
    <linearGradient
       xlink:href="#linearGradient1081"
       id="linearGradient3062"
       gradientUnits="userSpaceOnUse"
       x1="191.44727"
       y1="291.93292"
       x2="431.3645"
       y2="246.33475" />
    <linearGradient
       xlink:href="#linearGradient1081"
       id="linearGradient3064"
       gradientUnits="userSpaceOnUse"
       x1="191.44727"
       y1="291.93292"
       x2="431.3645"
       y2="246.33475" />
    <linearGradient
       xlink:href="#linearGradient1081"
       id="linearGradient3066"
       gradientUnits="userSpaceOnUse"
       x1="191.44727"
       y1="291.93292"
       x2="431.3645"
       y2="246.33475" />
    <linearGradient
       xlink:href="#linearGradient1081"
       id="linearGradient3068"
       gradientUnits="userSpaceOnUse"
       x1="191.44727"
       y1="291.93292"
       x2="431.3645"
       y2="246.33475" />
    <linearGradient
       xlink:href="#linearGradient1081"
       id="linearGradient3070"
       gradientUnits="userSpaceOnUse"
       x1="191.44727"
       y1="291.93292"
       x2="431.3645"
       y2="246.33475" />
    <linearGradient
       xlink:href="#linearGradient1081"
       id="linearGradient3072"
       gradientUnits="userSpaceOnUse"
       x1="191.44727"
       y1="291.93292"
       x2="431.3645"
       y2="246.33475" />
    <linearGradient
       xlink:href="#linearGradient1081"
       id="linearGradient3074"
       gradientUnits="userSpaceOnUse"
       x1="191.44727"
       y1="291.93292"
       x2="431.3645"
       y2="246.33475" />
    <linearGradient
       xlink:href="#linearGradient1081"
       id="linearGradient3076"
       gradientUnits="userSpaceOnUse"
       x1="191.44727"
       y1="291.93292"
       x2="431.3645"
       y2="246.33475" />
    <linearGradient
       xlink:href="#linearGradient1081"
       id="linearGradient3078"
       gradientUnits="userSpaceOnUse"
       x1="191.44727"
       y1="291.93292"
       x2="431.3645"
       y2="246.33475" />
  </defs>
  <g
     id="layer1"
     transform="translate(-50.627099,-71.670072)">
    <g
       aria-label="TryCatchFinally"
       transform="scale(0.26458333)"
       id="text234"
       style="font-size:48px;font-family:'Pine Forest';-inkscape-font-specification:'Pine Forest';white-space:pre;shape-inside:url(#rect236);display:inline;opacity:0.986538;fill:url(#linearGradient1083);fill-rule:evenodd;stroke-width:1.13386;stroke-linejoin:round;paint-order:markers fill stroke;filter:url(#filter1085)">
      <path
         d="m 191.44727,272.71418 h 16.94531 v 7.14843 h -4.89844 v 24.14063 h -7.19531 v -24.14063 h -4.85156 z"
         style="font-family:'Tw Cen MT Condensed Extra Bold';-inkscape-font-specification:'Tw Cen MT Condensed Extra Bold, ';fill:url(#linearGradient3050)"
         id="path2827" />
      <path
         d="m 217.69727,282.44074 v 3.60937 h 0.0937 q 2.4375,-4.21875 5.13281,-4.21875 0.39844,0 1.10156,0.14063 v 6.67969 q -1.24219,-0.21094 -2.29687,-0.21094 -3.75,0 -3.75,4.85156 v 10.71094 h -6.79688 v -21.5625 z"
         style="font-family:'Tw Cen MT Condensed Extra Bold';-inkscape-font-specification:'Tw Cen MT Condensed Extra Bold, ';fill:url(#linearGradient3052)"
         id="path2829" />
      <path
         d="m 226.43945,282.44074 h 6.72657 l 1.71093,5.60156 q 0.89063,2.95313 1.54688,5.78906 h 0.11719 q 0.53906,-2.69531 0.89062,-3.86718 l 2.27344,-7.52344 h 6.82031 l -9.1875,30.44531 h -6.79687 l 2.76562,-9.16406 z"
         style="font-family:'Tw Cen MT Condensed Extra Bold';-inkscape-font-specification:'Tw Cen MT Condensed Extra Bold, ';fill:url(#linearGradient3054)"
         id="path2831" />
      <path
         d="m 266.72852,296.62043 v 7.42968 q -2.25,0.72657 -4.03125,0.72657 -6.16407,0 -10.00782,-4.61719 -3.82031,-4.64063 -3.82031,-12.1875 0,-7.00781 3.86719,-11.55469 3.86719,-4.57031 9.77344,-4.57031 2.29687,0 4.21875,0.60937 v 7.45313 q -2.03907,-0.67969 -3.84375,-0.67969 -2.76563,0 -4.59375,2.53125 -1.82813,2.53125 -1.82813,6.44531 0,4.21875 1.82813,6.67969 1.85156,2.4375 4.92187,2.4375 1.5,0 3.51563,-0.70312 z"
         style="font-family:'Tw Cen MT Condensed Extra Bold';-inkscape-font-specification:'Tw Cen MT Condensed Extra Bold, ';fill:url(#linearGradient3056)"
         id="path2833" />
      <path
         d="m 281.30664,304.00324 v -2.83594 h -0.0937 q -1.24219,1.82813 -2.41406,2.69531 -1.14844,0.86719 -2.71875,0.86719 -3.07031,0 -4.89844,-3.14062 -1.82812,-3.14063 -1.82812,-8.53125 0,-5.17969 1.85156,-8.25 1.85156,-3.07032 4.875,-3.07032 1.61719,0 2.74219,0.82032 1.125,0.79687 2.34375,2.57812 h 0.0937 v -2.69531 h 6.82031 v 21.5625 z m 0,-10.89844 q 0,-5.36719 -2.625,-5.36719 -2.64844,0 -2.64844,5.36719 0,5.57813 2.74219,5.57813 2.53125,0 2.53125,-5.57813 z"
         style="font-family:'Tw Cen MT Condensed Extra Bold';-inkscape-font-specification:'Tw Cen MT Condensed Extra Bold, ';fill:url(#linearGradient3058)"
         id="path2835" />
      <path
         d="m 294.12695,276.69855 h 6.82032 v 5.74219 h 2.64843 v 5.67187 h -2.69531 v 15.89063 h -6.77344 v -15.9375 h -2.57812 v -5.625 h 2.57812 z"
         style="font-family:'Tw Cen MT Condensed Extra Bold';-inkscape-font-specification:'Tw Cen MT Condensed Extra Bold, ';fill:url(#linearGradient3060)"
         id="path2837" />
      <path
         d="m 318.75977,297.4173 v 5.625 q -2.4375,1.64063 -4.89844,1.64063 -3.63281,0 -5.83594,-3.14063 -2.17969,-3.16406 -2.17969,-8.48437 0,-5.03907 2.25,-8.20313 2.25,-3.16406 5.8125,-3.16406 2.48438,0 4.89844,1.75781 v 5.57813 q -1.38281,-0.72657 -2.48437,-0.72657 -1.64063,0 -2.64844,1.33594 -1.00781,1.3125 -1.00781,3.51563 0,2.32031 0.98437,3.65625 0.98438,1.33593 2.67188,1.33593 1.03125,0 2.4375,-0.72656 z"
         style="font-family:'Tw Cen MT Condensed Extra Bold';-inkscape-font-specification:'Tw Cen MT Condensed Extra Bold, ';fill:url(#linearGradient3062)"
         id="path2839" />
      <path
         d="m 322.76758,270.9798 h 6.79687 v 14.25 h 0.11719 q 2.50781,-3.49219 5.78906,-3.49219 2.34375,0 3.63282,1.54688 1.3125,1.52344 1.3125,4.3125 v 16.40625 H 333.5957 V 290.8548 q 0,-1.26562 -0.51562,-1.96875 -0.49219,-0.72656 -1.38281,-0.72656 -2.13282,0 -2.13282,2.88281 v 12.96094 h -6.79687 z"
         style="font-family:'Tw Cen MT Condensed Extra Bold';-inkscape-font-specification:'Tw Cen MT Condensed Extra Bold, ';fill:url(#linearGradient3064)"
         id="path2841" />
      <path
         d="m 346.18164,272.71418 h 14.36719 v 6.70312 h -7.26563 v 5.71875 h 6.39844 v 6.49219 h -6.39844 v 12.375 h -7.10156 z"
         style="font-family:'Tw Cen MT Condensed Extra Bold';-inkscape-font-specification:'Tw Cen MT Condensed Extra Bold, ';fill:url(#linearGradient3066)"
         id="path2843" />
      <path
         d="m 364.43945,275.97199 q 0,-1.5 1.05469,-2.55469 1.05469,-1.05469 2.53125,-1.05469 1.5,0 2.55469,1.05469 1.05469,1.05469 1.05469,2.55469 0,1.47656 -1.05469,2.55469 -1.05469,1.05468 -2.55469,1.05468 -1.45312,0 -2.53125,-1.05468 -1.05469,-1.07813 -1.05469,-2.55469 z m 0.1875,6.46875 h 6.82032 v 21.5625 h -6.82032 z"
         style="font-family:'Tw Cen MT Condensed Extra Bold';-inkscape-font-specification:'Tw Cen MT Condensed Extra Bold, ';fill:url(#linearGradient3068)"
         id="path2845" />
      <path
         d="m 383.61133,282.44074 v 2.92969 h 0.11719 q 2.39062,-3.63282 5.83593,-3.63282 2.25,0 3.5625,1.5 1.33594,1.5 1.33594,4.05469 v 16.71094 h -6.82031 v -13.28906 q 0,-1.10157 -0.51563,-1.80469 -0.51562,-0.70313 -1.33593,-0.70313 -2.17969,0 -2.17969,2.74219 v 13.05469 h -6.79688 v -21.5625 z"
         style="font-family:'Tw Cen MT Condensed Extra Bold';-inkscape-font-specification:'Tw Cen MT Condensed Extra Bold, ';fill:url(#linearGradient3070)"
         id="path2847" />
      <path
         d="m 410.21289,304.00324 v -2.83594 h -0.0937 q -1.24219,1.82813 -2.41406,2.69531 -1.14844,0.86719 -2.71875,0.86719 -3.07031,0 -4.89844,-3.14062 -1.82812,-3.14063 -1.82812,-8.53125 0,-5.17969 1.85156,-8.25 1.85156,-3.07032 4.875,-3.07032 1.61719,0 2.74219,0.82032 1.125,0.79687 2.34375,2.57812 h 0.0937 v -2.69531 h 6.82031 v 21.5625 z m 0,-10.89844 q 0,-5.36719 -2.625,-5.36719 -2.64844,0 -2.64844,5.36719 0,5.57813 2.74219,5.57813 2.53125,0 2.53125,-5.57813 z"
         style="font-family:'Tw Cen MT Condensed Extra Bold';-inkscape-font-specification:'Tw Cen MT Condensed Extra Bold, ';fill:url(#linearGradient3072)"
         id="path2849" />
      <path
         d="m 422.37695,270.9798 h 6.82032 v 33.02344 h -6.82032 z"
         style="font-family:'Tw Cen MT Condensed Extra Bold';-inkscape-font-specification:'Tw Cen MT Condensed Extra Bold, ';fill:url(#linearGradient3074)"
         id="path2851" />
      <path
         d="m 434.75195,270.9798 h 6.82032 v 33.02344 h -6.82032 z"
         style="font-family:'Tw Cen MT Condensed Extra Bold';-inkscape-font-specification:'Tw Cen MT Condensed Extra Bold, ';fill:url(#linearGradient3076)"
         id="path2853" />
      <path
         d="m 444.80664,282.44074 h 6.72656 l 1.71094,5.60156 q 0.89063,2.95313 1.54688,5.78906 h 0.11718 q 0.53907,-2.69531 0.89063,-3.86718 l 2.27344,-7.52344 h 6.82031 l -9.1875,30.44531 h -6.79688 l 2.76563,-9.16406 z"
         style="font-family:'Tw Cen MT Condensed Extra Bold';-inkscape-font-specification:'Tw Cen MT Condensed Extra Bold, ';fill:url(#linearGradient3078)"
         id="path2855" />
    </g>
  </g>
</svg>
